HIERARCHY
ROOT Hips
{
  OFFSET 3.13124 94.3669 -3.18751
  CHANNELS  6 Xposition Yposition Zposition Zrotation Xrotation Yrotation
  JOINT LeftUpLeg
  {
    OFFSET 8.64259 1.95398 -2.38835
    CHANNELS 3 Zrotation Xrotation Yrotation
    JOINT LeftLeg
    {
      OFFSET 43.7702 0 0
      CHANNELS 3 Zrotation Xrotation Yrotation
      JOINT LeftFoot
      {
        OFFSET 40.6238 0 0
        CHANNELS 3 Zrotation Xrotation Yrotation
        JOINT LeftToeBase
        {
          OFFSET 12.7242 0 0
          CHANNELS 3 Zrotation Xrotation Yrotation
          End Site
          {
            OFFSET 0 0 0
          }
        }
      }
    }
  }
  JOINT RightUpLeg
  {
    OFFSET -8.2249 1.95398 -2.59336
    CHANNELS 3 Zrotation Xrotation Yrotation
    JOINT RightLeg
    {
      OFFSET 43.5653 0 0
      CHANNELS 3 Zrotation Xrotation Yrotation
      JOINT RightFoot
      {
        OFFSET 40.6238 0 0
        CHANNELS 3 Zrotation Xrotation Yrotation
        JOINT RightToeBase
        {
          OFFSET 12.7242 0 0
          CHANNELS 3 Zrotation Xrotation Yrotation
          End Site
          {
            OFFSET 0 0 0
          }
        }
      }
    }
  }
  JOINT Spine
  {
    OFFSET 0.165834 0.87714 6.61349
    CHANNELS 3 Zrotation Xrotation Yrotation
    JOINT Spine1
    {
      OFFSET 7.38962 1.71661e-005 0
      CHANNELS 3 Zrotation Xrotation Yrotation
      JOINT Spine2
      {
        OFFSET 11.9445 1.14441e-005 0
        CHANNELS 3 Zrotation Xrotation Yrotation
        JOINT Spine3
        {
          OFFSET 14.7254 4.19617e-005 0
          CHANNELS 3 Zrotation Xrotation Yrotation
          JOINT Spine4
          {
            OFFSET 10.9679 0 0
            CHANNELS 3 Zrotation Xrotation Yrotation
            JOINT RightShoulder
            {
              OFFSET 2.46616 -1.6653 3.69651
              CHANNELS 3 Zrotation Xrotation Yrotation
              JOINT RightArm
              {
                OFFSET 13.0012 0 0
                CHANNELS 3 Zrotation Xrotation Yrotation
                JOINT RightForeArm
                {
                  OFFSET 28.7848 1.52588e-005 0
                  CHANNELS 3 Zrotation Xrotation Yrotation
                  JOINT RightHand
                  {
                    OFFSET 26.5688 1.52588e-005 0
                    CHANNELS 3 Zrotation Xrotation Yrotation
                    End Site
                    {
                      OFFSET 0 0 0
                    }
                  }
                }
              }
            }
            JOINT LeftShoulder
            {
              OFFSET 2.38034 -1.29275 -3.75231
              CHANNELS 3 Zrotation Xrotation Yrotation
              JOINT LeftArm
              {
                OFFSET 16.3182 6.10352e-005 0
                CHANNELS 3 Zrotation Xrotation Yrotation
                JOINT LeftForeArm
                {
                  OFFSET 27.0901 0 0
                  CHANNELS 3 Zrotation Xrotation Yrotation
                  JOINT LeftHand
                  {
                    OFFSET 24.5451 1.52588e-005 0
                    CHANNELS 3 Zrotation Xrotation Yrotation
                    End Site
                    {
                      OFFSET 0 0 0
                    }
                  }
                }
              }
            }
            JOINT Neck
            {
              OFFSET 5.0226 -0.0266342 0
              CHANNELS 3 Zrotation Xrotation Yrotation
              JOINT Head
              {
                OFFSET 6.69363 2.86102e-005 0
                CHANNELS 3 Zrotation Xrotation Yrotation
                End Site
                {
                  OFFSET 0 0 0
                }
              }
            }
          }
        }
      }
    }
  }
}
MOTION
Frames:	7
Frame Time:	0.0333333
40.6508 95.8939 82.4796 89.3287 -5.8267 89.3597 -177.426 25.2214 101.188 -4.13895 -11.1311 -0.631436 24.7492 -1.31523 -3.16516 28.7808 3.66588e-006 1.6696e-006 177.602 17.2511 84.8147 -27.291 29.3725 2.24444 37.975 17.4954 16.5601 28.7808 1.65427e-005 2.61978e-005 -0.270927 7.62454 -93.5878 11.705 -3.77294 -0.299568 0.0395995 -3.78421 -0.131385 -22.5352 -3.5049 -1.42862 -2.52254 -3.50496 -1.42867 119.481 -71.4727 -60.9581 -1.21772 25.2184 -10.2574 13.9125 80.9626 -20.203 -20.9543 6.84621 -42.0775 -84.1845 -14.09 80.5741 -20.0513 -14.1237 -63.1637 178.064 48.0457 -179.202 65.9005 -23.4117 -38.2036 53.3378 16.0385 -22.1836 -39.4668 19 29.5462 
43.6959 91.6446 82.1838 90.2402 -0.27295 89.8784 -176.838 30.1486 103.023 -4.05346 -8.46701 -0.461726 20.2141 -0.280232 -2.23562 28.7808 3.66588e-006 1.6696e-006 179.753 22.5617 83.9363 -47.7458 25.8696 1.85724 50.5528 22.7552 17.0675 28.7808 1.65427e-005 2.61978e-005 -0.388445 7.74176 -93.1194 11.4226 -3.80639 -0.970987 -0.242922 -3.84259 -0.802546 -22.8117 -3.33515 -2.06935 -2.79905 -3.3352 -2.06937 114.571 -61.7427 -65.2022 4.30638 23.8656 -3.77453 57.496 77.0727 -64.2119 -24.1166 8.1929 -43.1823 -83.4165 -14.7151 82.7159 -16.3216 -18.347 -65.8925 177.08 57.8233 -178.209 39.2089 -14.768 -41.5981 45.3587 21.7486 -12.3459 -29.4242 21.061 25.4238 
46.5906 88.5491 81.668 90.1639 3.18703 95.6507 -175.695 36.6011 108.129 -3.8559 -0.153493 0.030951 15.0834 -0.554301 -3.05197 28.7808 3.66588e-006 1.6696e-006 179.613 21.6484 90.584 -52.5266 33.6241 2.32429 56.5544 27.2662 18.139 28.7808 1.65427e-005 2.61978e-005 -0.134863 7.93726 -93.4366 10.9758 -3.53145 -2.74657 -0.693024 -3.64899 -2.58848 -23.2272 -2.54264 -3.68034 -3.21459 -2.54266 -3.68037 113.51 -52.0677 -64.8379 12.0372 21.874 0.344571 78.3014 66.6876 -85.0681 -29.5113 10.9336 -45.8806 -83.261 -14.0261 82.8834 -13.2982 -21.5674 -65.3279 175.094 68.1855 -176.219 19.0823 -6.69796 -38.4164 40.9759 24.072 -7.71144 -24.1205 22.0003 24.5595 
50.4296 86.6861 80.3152 90.5252 6.13415 98.3706 -175.835 39.9409 110.114 -3.80311 3.08672 0.217773 4.80105 -5.11107 -11.4407 28.7808 3.66588e-006 1.6696e-006 179.566 18.4553 93.191 -54.5293 35.8999 2.5345 60.1679 31.1812 19.3061 28.7808 1.65427e-005 2.61978e-005 0.200266 8.14657 -93.7952 10.5267 -3.27807 -3.45439 -1.14426 -3.4253 -3.30659 -23.6586 -2.10006 -4.28066 -3.64598 -2.10007 -4.28069 113.646 -53.1758 -64.8586 8.55074 24.7743 1.94558 84.146 60.3321 -90.5668 -29.7249 11.3404 -47.1513 -83.1126 -11.6673 82.5868 -10.4014 -24.3395 -61.1639 172.439 74.7778 -173.558 15.4639 -5.12512 -35.6463 44.0948 22.9533 -12.2521 -28.2277 21.2848 30.0011 
54.9367 85.649 78.3633 89.613 11.5514 101.485 -176.759 42.0064 109.381 -4.49454 -19.962 -1.2273 -1.70752 0.559514 -2.59336 28.7808 3.66588e-006 1.6696e-006 179.916 14.1915 96.3816 -53.8833 42.2373 3.3758 59.1424 35.5136 22.4887 28.7808 1.65427e-005 2.61978e-005 0.104249 8.04045 -94.12 10.7213 -3.79992 -3.99654 -0.949772 -3.97202 -3.82558 -23.4571 -2.42481 -4.95212 -3.44443 -2.4248 -4.95214 112.749 -58.6845 -67.1596 1.23191 28.5148 1.06456 85.5911 62.0384 -91.8146 -27.2458 10.9394 -49.1254 -83.4461 -9.81421 81.0787 -9.39501 -24.7701 -57.448 166.928 80.6162 -168.044 9.34228 -2.96066 -31.5497 45.3977 19.8125 -21.1109 -33.854 19.56 38.034 
59.6543 85.1632 75.557 87.9558 17.326 104.175 -177.514 40.931 106.031 -5.5457 -35.0392 -2.5754 -5.66126 3.2154 2.68419 28.7808 3.66588e-006 1.6696e-006 -179.786 10.9017 97.757 -54.0458 41.5313 3.26961 51.1334 38.5968 28.5619 28.7808 1.65427e-005 2.61978e-005 -0.0952269 7.8121 -94.4317 11.1837 -4.3472 -4.56433 -0.487374 -4.54374 -4.36877 -22.9863 -2.77676 -5.65742 -2.97369 -2.77678 -5.65746 111.538 -62.2748 -69.3599 -7.95086 33.6275 3.94188 105.997 57.3864 -109.283 -23.9723 9.74652 -50.07 -83.8393 -9.47841 79.8595 -8.54433 -24.6003 -51.1798 165.355 81.5317 -166.47 13.882 -3.32109 -26.6212 47.1487 16.9426 -26.528 -38.4363 17.29 42.1762 
63.6374 85.8784 72.2781 86.2471 22.4233 105.739 -178.143 39.0215 99.5263 -4.04144 -8.38221 -0.437663 -5.67945 4.79168 5.74955 28.7808 3.66588e-006 1.6696e-006 -179.595 8.78798 96.715 -53.4722 35.8353 2.33426 36.4764 37.7619 35.9318 28.7808 1.65427e-005 2.61978e-005 -0.829043 7.53334 -93.8821 11.7209 -4.67059 -4.99799 0.0494739 -4.8853 -4.78814 -22.4408 -2.95936 -6.1654 -2.42815 -2.95939 -6.16543 104.314 -66.2336 -79.1836 -19.1822 35.8006 9.15909 112.529 60.6141 -115.743 -22.9305 8.70115 -47.4194 -84.1383 -9.48025 79.1004 -8.0234 -24.279 -46.6088 170.176 77.8881 -171.293 15.7484 -2.88573 -21.725 48.1483 14.1053 -30.9816 -41.3346 15.3974 44.8567 
